<svg width="193" height="153" viewBox="0 0 193 153" fill="none" xmlns="http://www.w3.org/2000/svg">
<path d="M60.8677 44.0906L53.8311 21.5487C52.1549 17.7622 50.5231 18.6331 49.3758 19.6436C45.5727 23.2819 44.9961 30.3012 45.0001 34.7308C44.9842 42.1019 46.4952 46.6193 48.1904 48.9723C48.5294 49.4575 55.399 50.1852 59.8934 50.2395C61.0437 48.7881 61.149 46.5794 60.8677 44.0906Z" fill="#AECAD6" stroke="white" stroke-width="0.294746"/>
<path d="M60.1039 54.6519H51.0782C50.2751 54.5366 48.1527 60.3061 47.9954 62.0117C47.8868 62.966 47.6746 67.3079 47.6941 69.34C48.0102 73.8909 48.8672 75.805 49.718 77.7495C52.1032 82.2264 54.3703 79.2774 55.0748 77.6962L60.8264 58.9442C61.1221 57.6933 61.138 55.2211 60.1039 54.6519L60.1039 54.6519Z" fill="#AECAD6" stroke="white" stroke-width="0.294746"/>
<path d="M94.7417 1C84.6012 1.22649 78.4751 3.70754 73.1657 8.55185C69.7643 11.6553 64.6332 17.2129 63.0559 27.6184V63.2193H94.0324L94.7417 1Z" fill="#333333" stroke="#333333" stroke-width="0.25014"/>
<path d="M94.7417 1C104.882 1.22649 111.008 3.70754 116.318 8.55185C119.719 11.6553 124.85 17.2129 126.428 27.6184V63.2193H94.0323L94.7417 1Z" fill="#57575A" stroke="#57575A" stroke-width="0.25014"/>
<path opacity="0.973102" d="M94.8239 57.322C108.72 57.322 119.986 45.9593 119.986 31.9426C119.986 17.926 108.72 6.56326 94.8239 6.56326C80.9274 6.56326 69.6621 17.926 69.6621 31.9426C69.6621 45.9593 80.9274 57.322 94.8239 57.322Z" fill="#08BEFB" stroke="#08BEFB" stroke-width="0.195541" stroke-miterlimit="3.6"/>
<path opacity="0.973102" d="M94.8513 54.9998C107.287 54.9998 117.369 44.76 117.369 32.1285C117.369 19.4971 107.287 9.25723 94.8513 9.25723C82.4154 9.25723 72.3341 19.4971 72.3341 32.1285C72.3341 44.76 82.4154 54.9998 94.8513 54.9998Z" fill="#001421" stroke="#001421" stroke-width="0.175603" stroke-miterlimit="3.6"/>
<path opacity="0.973102" d="M95.3825 43.9064C102.237 43.9064 107.793 38.3786 107.793 31.5597C107.793 24.7408 102.237 19.213 95.3825 19.213C88.5282 19.213 82.9718 24.7408 82.9718 31.5597C82.9718 38.3786 88.5282 43.9064 95.3825 43.9064Z" fill="#174647" stroke="#173647" stroke-width="0.0957862" stroke-miterlimit="3.6"/>
<path opacity="0.973102" d="M102.678 25.6805C104.749 25.6805 106.428 24.0382 106.428 22.0123C106.428 19.9864 104.749 18.344 102.678 18.344C100.607 18.344 98.9282 19.9864 98.9282 22.0123C98.9282 24.0382 100.607 25.6805 102.678 25.6805Z" fill="white" stroke="#173647" stroke-width="0.0286996" stroke-miterlimit="3.6"/>
<path opacity="0.973102" d="M87.4759 47.6556C91.2748 47.6556 94.3545 44.6647 94.3545 40.9753C94.3545 37.2858 91.2748 34.2949 87.4759 34.2949C83.6769 34.2949 80.5973 37.2858 80.5973 40.9753C80.5973 44.6647 83.6769 47.6556 87.4759 47.6556Z" fill="white" stroke="#173647" stroke-width="0.0524543" stroke-miterlimit="3.6"/>
<path d="M62.6335 63.9177H93.5741V70.775H62.5878L62.6335 63.9177Z" fill="#008CED"/>
<path d="M93.5761 63.9177H126.818V70.775H93.527L93.5761 63.9177Z" fill="#08BEFB"/>
<path d="M93.751 71.2003V78.0783H64.6495C63.998 76.7445 63.1592 74.0209 63.0302 71.2003H93.751Z" fill="#333333" stroke="#333333" stroke-width="0.197775"/>
<path d="M93.9314 71.2149V78.07H124.644C125.331 76.7407 126.217 74.0262 126.353 71.2149H93.9314Z" fill="#57575A" stroke="#57575A" stroke-width="0.202835"/>
<path d="M65.6655 78.9614H93.9238V84.567H70.9669C69.1828 83.1852 67.4148 81.3417 65.6655 78.9614Z" fill="#008CED" stroke="#069316" stroke-width="0.188965"/>
<path d="M124.173 78.9614H93.924V84.5424H118.498C120.408 83.1667 122.3 81.3312 124.173 78.9614Z" fill="#08BEFB" stroke="#08BEFB" stroke-width="0.195077"/>
<path d="M71.2166 85.4388H93.3234V97H93.3099H92.3468L88.771 91.7505L86.0659 91.8002C80.3502 90.3619 75.3706 88.2679 71.2166 85.4388L71.2166 85.4388Z" fill="#333333" stroke="#333333" stroke-width="0.194928"/>
<path d="M117.528 85.4481H93.9729V96.9894H95.0133L98.8233 91.7489L101.706 91.7985C107.796 90.3627 113.102 88.2724 117.528 85.448V85.4481Z" fill="#57575A" stroke="#57575A" stroke-width="0.201038"/>
<path d="M128.132 43.6334L135.169 21.0915C136.845 17.305 138.477 18.1759 139.624 19.1864C143.427 22.8247 144.004 29.8439 144 34.2736C144.016 41.6447 142.505 46.1621 140.81 48.5152C140.471 49.0003 133.601 49.728 129.107 49.7823C127.956 48.3309 127.851 46.1222 128.132 43.6334Z" fill="#AECAD6"/>
<path d="M128.896 54.1948H137.922C138.725 54.0795 140.847 59.849 141.005 61.5546C141.113 62.5089 141.325 66.8508 141.306 68.8829C140.99 73.4339 140.133 75.3479 139.282 77.2924C136.897 81.7693 134.63 78.8203 133.925 77.239L128.174 58.487C127.878 57.2361 127.862 54.764 128.896 54.1948V54.1948Z" fill="#AECAD6" stroke="white" stroke-width="0.294746"/>
<path d="M32.5733 135.076L44.0213 119.56H32.8973V115.024H50.3933V119.128L39.0173 134.464H50.3933V139H32.5733V135.076ZM56.6876 112.72H62.4836V117.4H56.6876V112.72ZM53.8796 134.644H57.3356V124.816H53.8796V120.46H62.4116V134.644H65.5076V139H53.8796V134.644ZM68.8714 120.46H73.8034L73.6954 122.872H73.8394C74.4634 121.912 75.2194 121.18 76.1074 120.676C77.0194 120.172 78.0514 119.92 79.2034 119.92C81.2914 119.92 82.9234 120.724 84.0994 122.332C85.2994 123.916 85.8994 126.136 85.8994 128.992C85.8994 132.376 85.0114 134.98 83.2354 136.804C81.4834 138.604 78.9754 139.504 75.7114 139.504C75.3034 139.504 74.6914 139.48 73.8754 139.432V146.848H68.8714V120.46ZM76.2154 135.076C77.7274 135.076 78.8674 134.584 79.6354 133.6C80.4274 132.616 80.8234 131.176 80.8234 129.28C80.8234 127.744 80.5714 126.544 80.0674 125.68C79.5874 124.792 78.9154 124.348 78.0514 124.348C77.2834 124.348 76.5394 124.684 75.8194 125.356C75.0994 126.004 74.4514 126.94 73.8754 128.164V134.752C74.6914 134.968 75.4714 135.076 76.2154 135.076ZM91.633 112.72H97.429V117.4H91.633V112.72ZM88.825 134.644H92.281V124.816H88.825V120.46H97.357V134.644H100.453V139H88.825V134.644Z" fill="#008CED"/>
<path d="M113.641 114.883C115.375 114.883 116.875 115.176 118.141 115.762C119.43 116.324 120.426 117.098 121.129 118.082C121.832 119.066 122.184 120.203 122.184 121.492C122.184 122.641 121.856 123.695 121.199 124.656C120.543 125.594 119.723 126.297 118.738 126.766C119.442 126.906 120.133 127.199 120.813 127.645C121.492 128.09 122.055 128.699 122.5 129.473C122.969 130.246 123.203 131.207 123.203 132.355C123.203 133.668 122.828 134.852 122.078 135.906C121.328 136.961 120.25 137.805 118.844 138.438C117.461 139.047 115.82 139.352 113.922 139.352C112.469 139.352 110.945 139.258 109.352 139.07C107.781 138.906 106.445 138.707 105.344 138.473V115.762C106.563 115.48 107.887 115.27 109.317 115.129C110.77 114.965 112.211 114.883 113.641 114.883ZM113.43 117.871C112.445 117.871 111.555 117.906 110.758 117.977C109.985 118.047 109.235 118.152 108.508 118.293V125.676H114.027C115.621 125.676 116.84 125.277 117.684 124.48C118.527 123.66 118.949 122.711 118.949 121.633C118.949 120.789 118.692 120.098 118.176 119.559C117.66 118.996 116.981 118.574 116.137 118.293C115.317 118.012 114.414 117.871 113.43 117.871ZM108.508 135.941C109.352 136.105 110.289 136.223 111.32 136.293C112.352 136.34 113.195 136.363 113.852 136.363C115.61 136.363 117.063 136 118.211 135.273C119.383 134.547 119.969 133.574 119.969 132.355C119.969 131.066 119.395 130.105 118.246 129.473C117.121 128.816 115.738 128.488 114.098 128.488H108.508V135.941ZM136.492 121.07C138.274 121.07 139.856 121.492 141.238 122.336C142.621 123.18 143.699 124.305 144.473 125.711C145.27 127.117 145.668 128.652 145.668 130.316C145.668 131.98 145.27 133.516 144.473 134.922C143.699 136.305 142.621 137.418 141.238 138.262C139.856 139.105 138.274 139.527 136.492 139.527C134.711 139.527 133.129 139.105 131.746 138.262C130.363 137.418 129.274 136.305 128.477 134.922C127.703 133.516 127.317 131.98 127.317 130.316C127.317 128.652 127.703 127.117 128.477 125.711C129.274 124.305 130.363 123.18 131.746 122.336C133.129 121.492 134.711 121.07 136.492 121.07ZM136.492 123.883C135.25 123.883 134.16 124.188 133.223 124.797C132.285 125.383 131.559 126.168 131.043 127.152C130.551 128.113 130.305 129.168 130.305 130.316C130.305 131.441 130.551 132.496 131.043 133.48C131.559 134.441 132.285 135.227 133.223 135.836C134.16 136.422 135.25 136.715 136.492 136.715C137.758 136.715 138.848 136.422 139.762 135.836C140.699 135.227 141.414 134.441 141.906 133.48C142.422 132.496 142.68 131.441 142.68 130.316C142.68 129.168 142.422 128.113 141.906 127.152C141.414 126.168 140.699 125.383 139.762 124.797C138.848 124.188 137.758 123.883 136.492 123.883ZM154.563 116.359V121.422H159.695V124.129H154.563V134.43C154.563 135.156 154.75 135.73 155.125 136.152C155.5 136.574 156.074 136.785 156.848 136.785C157.551 136.785 158.137 136.703 158.606 136.539C159.074 136.352 159.485 136.152 159.836 135.941V138.297C159.367 138.672 158.863 138.965 158.324 139.176C157.809 139.41 157.106 139.527 156.215 139.527C154.715 139.527 153.578 139.082 152.805 138.191C152.055 137.277 151.68 136.07 151.68 134.57V124.129H148.305V123.285C149.453 122.77 150.414 121.926 151.188 120.754C151.961 119.559 152.641 118.094 153.227 116.359H154.563Z" fill="#011921" fill-opacity="0.72"/>
</svg>
